<svg width="268" height="183" viewBox="0 0 268 183" fill="none" xmlns="http://www.w3.org/2000/svg">
<path opacity="0.5" d="M267.993 23.8417C267.904 22.7733 266.973 21.9839 265.913 22.0535C256.135 22.8287 246.329 24.4053 236.537 26.6251L247.126 16.0832C247.885 15.3338 247.884 14.098 247.136 13.3379C246.389 12.5778 245.155 12.5786 244.397 13.328L229.252 28.3861C222.979 30.0215 216.72 31.9164 210.485 34.031L223.793 8.32619C224.288 7.37623 223.908 6.20613 222.96 5.71035C221.998 5.18932 220.845 5.59562 220.35 6.54558L205.166 35.9082C198.467 38.3208 191.802 40.9982 185.206 43.8866L200.405 10.5233C200.845 9.53717 200.415 8.39587 199.456 7.93969C198.472 7.49787 197.334 7.92938 196.878 8.89024L179.861 46.2466C174.539 48.6768 169.243 51.2421 164.025 53.9139L181.61 2.56959C181.952 1.55623 181.441 0.477816 180.396 0.104298C179.385 -0.238517 178.283 0.28854 177.936 1.32171L159.036 56.5215C153.242 59.5883 147.519 62.7814 141.893 66.0863L159.065 13.073C159.388 12.0542 158.842 10.9451 157.825 10.6221C156.809 10.2991 155.702 10.8458 155.38 11.8646L136.86 69.0864C130.95 72.6537 125.141 76.3132 119.465 80.0305L133.446 20.6834C133.69 19.6428 133.068 18.5767 132.005 18.3472C130.967 18.1034 129.917 18.7512 129.674 19.7918L114.733 83.1772C108.529 87.3454 102.479 91.5771 96.6168 95.8183L105.831 30.2993C105.976 29.2315 105.248 28.2426 104.183 28.0978C103.117 27.953 102.131 28.6821 101.986 29.7499L92.2562 99.0037C86.7919 103.035 81.502 107.05 76.4062 111.056L81.9304 48.7579C82.0353 47.6791 81.2522 46.7388 80.1704 46.6534C79.1137 46.5537 78.1503 47.353 78.0705 48.4174L72.2216 114.375C67.3273 118.265 62.6327 122.125 58.1342 125.89L60.8396 66.117C60.8799 65.0416 60.066 64.1354 58.9931 64.0951C57.9201 64.0548 57.0159 64.8705 56.9757 65.9458L54.1164 129.298C47.1055 135.246 40.6722 140.948 34.8653 146.227L40.012 86.2327C40.0918 85.1683 39.314 84.2082 38.252 84.1282C37.1953 84.0285 36.2517 84.8332 36.1522 85.8922L30.6577 150.094C12.0062 167.317 0.890543 179.311 0.517496 179.741C-0.212286 180.54 -0.166556 181.767 0.631561 182.499C0.782194 182.647 0.963383 182.761 1.13577 182.83C1.87371 183.161 2.78709 183.008 3.3637 182.379C3.73131 181.969 14.7299 170.091 33.1887 153.029L94.6323 167.826C95.6706 168.07 96.7201 167.422 96.9831 166.387C97.2263 165.347 96.5853 164.275 95.547 164.031L36.6542 149.852C42.6394 144.388 49.3267 138.458 56.6168 132.267L121.604 154.518C122.615 154.861 123.721 154.314 124.063 153.3C124.406 152.287 123.854 151.198 122.849 150.835L60.0619 129.319C64.7027 125.423 69.5594 121.437 74.6211 117.401L138.296 142.571C139.291 142.973 140.426 142.476 140.808 141.474C141.209 140.477 140.68 139.308 139.714 138.957L78.1271 114.619C83.4101 110.474 88.8981 106.279 94.5748 102.093L164.267 130.584C165.262 130.986 166.392 130.509 166.793 129.512C167.194 128.515 166.715 127.318 165.724 126.981L98.2477 99.3995C104.277 95.0129 110.515 90.6412 116.9 86.3526L182.718 114.712C183.707 115.134 184.851 114.683 185.272 113.691C185.688 112.719 185.252 111.598 184.288 111.161C184.268 111.156 184.268 111.156 184.248 111.15L120.769 83.7983C126.662 79.9067 132.703 76.0984 138.866 72.3875L195.041 98.0871C196.025 98.5289 197.164 98.0974 197.619 97.1365C198.06 96.1504 197.629 95.0092 196.671 94.5531L142.93 69.9725C148.783 66.5383 154.718 63.1909 160.759 60.0003L203.587 88.1744C203.675 88.2412 203.768 88.2882 203.847 88.31C204.699 88.6939 205.749 88.4298 206.27 87.615C206.858 86.7121 206.613 85.5155 205.712 84.9261L164.68 57.9505C170.473 54.9684 176.337 52.1126 182.242 49.4171L218.317 75.3236C218.425 75.396 218.533 75.4683 218.646 75.5208C219.477 75.8992 220.482 75.644 221.032 74.8797C221.655 74.0075 221.46 72.782 220.589 72.1585L186.357 47.5911C192.978 44.6883 199.649 41.9911 206.347 39.5785L233.148 59.4758C233.256 59.5481 233.383 59.6258 233.496 59.6783C234.308 60.0513 235.308 59.8158 235.852 59.0713C236.494 58.2045 236.319 56.9847 235.454 56.3414L210.789 38.0342C217.124 35.8622 223.504 33.9154 229.892 32.2478L249.247 48.4512C249.384 48.574 249.531 48.6572 249.683 48.7206C250.455 49.0827 251.405 48.8759 251.973 48.2017C252.668 47.3711 252.558 46.1478 251.724 45.4703L234.548 31.0825C245.102 28.5618 255.689 26.7743 266.249 25.9379C267.27 25.8575 268.082 24.9101 267.993 23.8417Z" fill="#D9E9E5"/>
</svg>
