<svg width="485" height="729" viewBox="0 0 485 729" fill="none" xmlns="http://www.w3.org/2000/svg">
<path d="M131.954 180.859C128.506 163.922 126.222 150.191 124.778 140.495C81.177 91.536 106.032 0 106.032 0C153.024 76.1733 138.826 124.835 132.053 140.099C133.749 151.447 136.587 168.229 141.08 189.147C141.025 164.237 146.12 116.595 179.833 70.1878C179.841 70.1173 198.265 159.492 144.583 204.798C149.831 227.344 156.815 253.625 166.03 282.389C162.813 252.687 165.017 198.347 209.247 145.779C209.247 145.779 240.934 236.208 172.829 302.847C177.509 316.437 182.675 330.481 188.374 344.861C205.465 388.009 228.83 437.655 260.307 488.553C250.605 459.321 237.439 388.852 293.531 304.191C293.531 304.191 293.556 304.249 293.61 304.364C295.895 309.206 345.783 414.965 268.116 500.943C289.305 533.929 313.941 567.26 342.518 599.521C329.945 569.034 291.536 458.784 342.588 352.752C342.588 352.752 418.251 413.62 347.232 604.794C366.446 626.083 387.402 646.869 410.243 666.741C396.404 632.257 376.522 539.699 431.6 341.813C431.6 341.813 431.617 341.864 431.649 341.961C433.666 348.023 497.528 539.938 422.659 677.296C441.636 693.057 461.857 708.175 483.397 722.434C485.029 723.555 485.515 725.781 484.387 727.396C483.603 728.541 482.296 729.122 480.996 728.979C480.418 728.915 479.856 728.709 479.381 728.367C450.757 709.411 424.442 688.961 400.263 667.511C231.571 741.58 107.091 683.688 107.091 683.688C229.784 615.636 364.959 653.608 396.275 663.947C376.776 646.391 358.687 628.19 341.913 609.611C234.733 646.572 85.3315 570.395 85.3315 570.395C227.555 531.063 317.77 590.058 338.368 605.657C313.865 578.137 292.219 549.835 273.123 521.612C126.392 550.225 33.0791 467.808 33.0791 467.808C130.812 442.694 235.542 495.639 268.237 514.308C249.73 486.332 233.709 458.507 219.875 431.672C114.179 447.152 2.1842 343.882 2.26353 343.819C123.776 335.186 191.138 394.784 214.032 420.138C201.291 394.547 190.547 369.991 181.534 347.224C179.361 341.735 177.264 336.294 175.242 330.907C58.6964 329.545 2.67865 253.68 0.093814 250.179C0.032887 250.097 0 250.054 0 250.054C89.6627 246.504 153.3 304.009 172.722 324.117C164.313 301.207 157.255 279.356 151.344 259.078C58.0679 250.899 7.3989 170.824 7.3989 170.824C94.4722 176.094 135.441 228.411 148.749 250.018C142.895 229.211 138.276 210.229 134.658 193.672C53.3433 177.681 26.8089 109.361 26.8089 109.361C95.705 126.683 122.272 161.695 131.954 180.859Z" fill="#0E1D1A"/>
<path d="M242.369 224.245C242.369 224.245 164.647 306.682 219.803 415.456C219.803 415.456 219.809 415.45 219.821 415.439C219.836 415.427 219.858 415.407 219.888 415.381C222.785 412.905 298.091 348.544 242.369 224.245Z" fill="#0E1D1A"/>
</svg>
