<svg width="560" height="380" viewBox="0 0 560 380" fill="none" xmlns="http://www.w3.org/2000/svg">
<path d="M250.169 134.2C234.83 118.97 191.06 69.1678 194.874 0C194.874 0.00126841 194.907 0.0257035 194.969 0.0733537C197.65 2.11042 255.727 46.2496 255.397 136.226C259.543 137.85 263.731 139.533 267.955 141.275C285.477 148.503 304.363 157.087 324.027 167.225C304.668 149.254 259.32 96.5513 267.448 2.85809C267.498 2.79761 346.129 90.4688 332.888 171.872C353.501 182.867 374.856 195.564 396.298 210.181C382.231 184.724 342.48 103.256 363.086 28.1137C363.086 28.1137 425.793 101.118 401.895 214.039C423.522 229.113 445.179 246.158 466.197 265.398C454.365 249.317 409.753 178.981 441.898 69.6633C441.898 69.6633 499.107 185.887 469.215 268.181C483.401 281.348 497.279 295.526 510.641 310.785C503.007 286.491 475.211 181.7 529.36 87.8007C529.36 87.8007 572.707 184.572 513.352 313.905C529.674 332.823 545.196 353.378 559.533 375.697C559.792 376.068 559.945 376.504 559.988 376.951C560.083 377.956 559.618 378.958 558.722 379.55C557.459 380.401 555.74 380 554.892 378.727C544.107 361.932 532.642 346.145 520.664 331.31C413.42 387.471 265.582 335.904 260.91 334.275C260.836 334.249 260.797 334.235 260.797 334.235C414.67 294.067 486.102 310.509 512.638 321.6C497.522 303.734 481.677 287.312 465.421 272.228C316.553 324.78 270.322 265.655 270.322 265.655C353.025 227.507 437.931 258.457 461.392 268.524C436.752 246.085 411.238 226.675 385.95 209.929C318.455 268.859 237.16 229.097 233.438 227.277C233.393 227.255 233.359 227.238 233.337 227.228C233.316 227.217 233.305 227.212 233.305 227.213C299.519 184.923 353.923 195.916 376.445 203.752C337.411 178.853 299.249 160.231 266.044 146.527C254.977 141.958 244.164 137.803 233.697 134.03C181.29 185.81 111.648 160.279 111.648 160.279C152.877 126.762 194.978 125.704 217.938 128.54C195.776 121.086 175.51 115.384 158.116 111.065C122.398 151.965 53.4146 136.684 53.4693 136.679C89.8029 111.207 126.753 107.839 146.04 108.176C129.895 104.46 116.934 102.07 108.167 100.627C96.266 105.674 58.4195 116.053 0 78.8798C0 78.8798 71.1726 60.7794 108.563 95.0165C116.054 96.246 126.658 98.1718 139.732 101.034C125.009 93.3348 98.212 72.4139 85.6175 19.0248C85.6175 19.0248 138.202 40.3163 149.618 103.273C162.396 106.261 177.04 110.052 193.083 114.818C176.513 104.292 136.485 72.0489 133.439 4.77082C133.439 4.77082 194.839 44.8311 200.064 116.928C215.694 121.73 232.53 127.438 250.169 134.2Z" fill="#4B665F"/>
<path d="M172.011 186.775C172.011 186.775 236.765 127.759 320.332 171.622C320.332 171.622 320.331 171.623 320.329 171.626C320.326 171.628 320.322 171.633 320.316 171.64C320.306 171.651 320.292 171.666 320.274 171.687L320.274 171.687C318.322 173.894 267.592 231.258 172.011 186.775Z" fill="#4B665F"/>
</svg>
